%TF.GenerationSoftware,KiCad,Pcbnew,4.0.2-stable*%
%TF.CreationDate,2016-04-25T01:20:38-04:00*%
%TF.ProjectId,tornado,746F726E61646F2E6B696361645F7063,rev?*%
%TF.FileFunction,Legend,Top*%
%FSLAX46Y46*%
G04 Gerber Fmt 4.6, Leading zero omitted, Abs format (unit mm)*
G04 Created by KiCad (PCBNEW 4.0.2-stable) date Mon 25 Apr 2016 01:20:38 EDT*
%MOMM*%
G01*
G04 APERTURE LIST*
%ADD10C,0.100000*%
%ADD11C,0.150000*%
G04 APERTURE END LIST*
D10*
D11*
X45000000Y45000000D02*
X0Y45000000D01*
X45000000Y0D02*
X45000000Y45000000D01*
X0Y0D02*
X45000000Y0D01*
X0Y45000000D02*
X0Y0D01*
X30600000Y1700000D02*
X25600000Y8200000D01*
X17400000Y1700000D02*
X22400000Y8200000D01*
X17400000Y43300000D02*
X22400000Y36800000D01*
X30550000Y43200000D02*
X25600000Y36800000D01*
X15250000Y6550000D02*
G75*
G03X14950000Y6750000I-250000J-50000D01*
G01*
X15150000Y6300000D02*
G75*
G03X15200000Y6650000I-150000J200000D01*
G01*
X17650000Y5950000D02*
G75*
G03X17300000Y5900000I-150000J-200000D01*
G01*
X17700000Y5600000D02*
G75*
G03X17650000Y5950000I-200000J150000D01*
G01*
X30450000Y6000000D02*
G75*
G03X30250000Y5700000I50000J-250000D01*
G01*
X30700000Y5900000D02*
G75*
G03X30350000Y5950000I-200000J-150000D01*
G01*
X32850000Y6700000D02*
G75*
G03X32800000Y6350000I150000J-200000D01*
G01*
X33050000Y6750000D02*
G75*
G03X32750000Y6550000I-50000J-250000D01*
G01*
X35600000Y1700000D02*
G75*
G03X36300000Y1600000I400000J300000D01*
G01*
X36300000Y1600000D02*
G75*
G03X36400000Y2300000I-300000J400000D01*
G01*
X30600000Y1700000D02*
G75*
G03X31300000Y1600000I400000J300000D01*
G01*
X31050000Y1500000D02*
G75*
G03X31500000Y2050000I-50000J500000D01*
G01*
X16550000Y2200000D02*
G75*
G03X16800000Y1550000I450000J-200000D01*
G01*
X16700000Y1600000D02*
G75*
G03X17400000Y1700000I300000J400000D01*
G01*
X11600000Y1700000D02*
G75*
G03X12300000Y1600000I400000J300000D01*
G01*
X11600000Y2300000D02*
G75*
G03X11650000Y1650000I350000J-300000D01*
G01*
X15200000Y6350000D02*
X11600000Y2300000D01*
X12000000Y6000000D02*
X15000000Y6750000D01*
X17300000Y5900000D02*
X12300000Y1600000D01*
X17700000Y5600000D02*
X16550000Y2200000D01*
X30250000Y5700000D02*
X31500000Y2050000D01*
X30650000Y5950000D02*
X35600000Y1700000D01*
X32800000Y6350000D02*
X36400000Y2300000D01*
X36000000Y6000000D02*
X33050000Y6750000D01*
X30300000Y39400000D02*
G75*
G03X30350000Y39050000I200000J-150000D01*
G01*
X30300000Y39100000D02*
G75*
G03X30650000Y39050000I200000J150000D01*
G01*
X32850000Y38700000D02*
G75*
G03X32800000Y38350000I150000J-200000D01*
G01*
X32750000Y38450000D02*
G75*
G03X33050000Y38250000I250000J50000D01*
G01*
X17400000Y39050000D02*
G75*
G03X17700000Y39150000I100000J200000D01*
G01*
X17600000Y39050000D02*
G75*
G03X17700000Y39350000I-100000J200000D01*
G01*
X14950000Y38250000D02*
G75*
G03X15250000Y38450000I50000J250000D01*
G01*
X15150000Y38300000D02*
G75*
G03X15200000Y38650000I-150000J200000D01*
G01*
X12000000Y14000000D02*
X23000000Y14000000D01*
X31450000Y42800000D02*
G75*
G03X31200000Y43450000I-450000J200000D01*
G01*
X31200000Y43450000D02*
G75*
G03X30550000Y43200000I-200000J-450000D01*
G01*
X36400000Y42700000D02*
G75*
G03X36300000Y43400000I-400000J300000D01*
G01*
X36400000Y43300000D02*
G75*
G03X35700000Y43400000I-400000J-300000D01*
G01*
X30300000Y39400000D02*
X31450000Y42800000D01*
X11650000Y43350000D02*
G75*
G03X11650000Y42650000I350000J-350000D01*
G01*
X12350000Y43350000D02*
G75*
G03X11650000Y43350000I-350000J-350000D01*
G01*
X16800000Y43450000D02*
G75*
G03X16550000Y42800000I200000J-450000D01*
G01*
X17400000Y43300000D02*
G75*
G03X16700000Y43400000I-400000J-300000D01*
G01*
X12000000Y31000000D02*
X23000000Y31000000D01*
X16550000Y42800000D02*
X17700000Y39400000D01*
X12350000Y43350000D02*
X17350000Y39050000D01*
X11700000Y42600000D02*
X15200000Y38650000D01*
X12000000Y39000000D02*
X15000000Y38250000D01*
X30650000Y39050000D02*
X35700000Y43400000D01*
X32850000Y38700000D02*
X36350000Y42650000D01*
X36000000Y31000000D02*
X25000000Y31000000D01*
X36000000Y14000000D02*
X25000000Y14000000D01*
X33000000Y38250000D02*
X36000000Y39000000D01*
X11800000Y6950000D02*
X17250000Y10000000D01*
X11800000Y6950000D02*
G75*
G03X11550000Y6300000I200000J-450000D01*
G01*
X11700000Y38100000D02*
X17250000Y35000000D01*
X11600000Y38800000D02*
G75*
G03X11700000Y38100000I400000J-300000D01*
G01*
X36250000Y38000000D02*
X30750000Y35000000D01*
X36250000Y38000000D02*
G75*
G03X36450000Y38700000I-250000J450000D01*
G01*
X30750000Y10000000D02*
X36300000Y6900000D01*
X36400000Y6200000D02*
G75*
G03X36300000Y6900000I-400000J300000D01*
G01*
X17250000Y10000000D02*
G75*
G03X17500000Y11750000I-750000J1000000D01*
G01*
X17750000Y11000000D02*
G75*
G03X16500000Y12250000I-1250000J0D01*
G01*
X16500000Y32750000D02*
G75*
G03X17750000Y34000000I0J1250000D01*
G01*
X17500000Y33250000D02*
G75*
G03X17250000Y35000000I-1000000J750000D01*
G01*
X30750000Y35000000D02*
G75*
G03X30500000Y33250000I750000J-1000000D01*
G01*
X30250000Y34000000D02*
G75*
G03X31500000Y32750000I1250000J0D01*
G01*
X30500000Y11750000D02*
G75*
G03X30750000Y10000000I1000000J-750000D01*
G01*
X31500000Y12250000D02*
G75*
G03X30250000Y11000000I0J-1250000D01*
G01*
X16500000Y12250000D02*
X12000000Y13000000D01*
X16500000Y32750000D02*
X12000000Y32000000D01*
X36000000Y13000000D02*
X31500000Y12250000D01*
X36000000Y32000000D02*
X31500000Y32750000D01*
X36500000Y38500000D02*
G75*
G03X36000000Y39000000I-500000J0D01*
G01*
X36000000Y6000000D02*
G75*
G03X36500000Y6500000I0J500000D01*
G01*
X11500000Y6500000D02*
G75*
G03X12000000Y6000000I500000J0D01*
G01*
X12000000Y39000000D02*
G75*
G03X11500000Y38500000I0J-500000D01*
G01*
X36500000Y31500000D02*
G75*
G03X36000000Y32000000I-500000J0D01*
G01*
X36000000Y31000000D02*
G75*
G03X36500000Y31500000I0J500000D01*
G01*
X12000000Y32000000D02*
G75*
G03X11500000Y31500000I0J-500000D01*
G01*
X11500000Y31500000D02*
G75*
G03X12000000Y31000000I500000J0D01*
G01*
X11500000Y13500000D02*
G75*
G03X12000000Y13000000I500000J0D01*
G01*
X12000000Y14000000D02*
G75*
G03X11500000Y13500000I0J-500000D01*
G01*
X36000000Y13000000D02*
G75*
G03X36500000Y13500000I0J500000D01*
G01*
X36500000Y13500000D02*
G75*
G03X36000000Y14000000I-500000J0D01*
G01*
X24250000Y20750000D02*
X23750000Y20750000D01*
X24250000Y24250000D02*
X23750000Y24250000D01*
X23250000Y20750000D02*
X23000000Y20750000D01*
X23000000Y24250000D02*
X23250000Y24250000D01*
X25000000Y20750000D02*
X24750000Y20750000D01*
X25000000Y24250000D02*
X24750000Y24250000D01*
X23000000Y14000000D02*
X23000000Y31000000D01*
X25000000Y31000000D02*
X25000000Y14000000D01*
X3499500Y27000880D02*
X3499500Y17999120D01*
X-620Y27000880D02*
X-620Y17999120D01*
X-620Y17999120D02*
X14500240Y17999120D01*
X14500240Y17999120D02*
X14500240Y27000880D01*
X14500240Y27000880D02*
X-620Y27000880D01*
X27425000Y21500000D02*
X27425000Y23500000D01*
X29575000Y23500000D02*
X29575000Y21500000D01*
X21651000Y17674000D02*
X18222000Y17674000D01*
X21651000Y27326000D02*
X18222000Y27326000D01*
X22794000Y17166000D02*
X22794000Y27834000D01*
X21778000Y20722000D02*
X23048000Y20722000D01*
X21778000Y24278000D02*
X23048000Y24278000D01*
X21651000Y27834000D02*
X21651000Y17166000D01*
X18222000Y17166000D02*
X18222000Y27834000D01*
X23048000Y27834000D02*
X18222000Y27834000D01*
X23048000Y17166000D02*
X18222000Y17166000D01*
X23048000Y17166000D02*
X23048000Y27834000D01*
X44569080Y899040D02*
X38970920Y899040D01*
X39169040Y401200D02*
X39169040Y899040D01*
X44370960Y899040D02*
X44370960Y401200D01*
X41770000Y401200D02*
X41770000Y899040D01*
X38970920Y6200020D02*
X44569080Y6200020D01*
X38970920Y401200D02*
X44569080Y401200D01*
X44569080Y401200D02*
X44569080Y6598800D01*
X44569080Y6598800D02*
X38970920Y6598800D01*
X38970920Y6598800D02*
X38970920Y401200D01*
X38930920Y44100960D02*
X44529080Y44100960D01*
X44330960Y44598800D02*
X44330960Y44100960D01*
X39129040Y44100960D02*
X39129040Y44598800D01*
X41730000Y44598800D02*
X41730000Y44100960D01*
X44529080Y38799980D02*
X38930920Y38799980D01*
X44529080Y44598800D02*
X38930920Y44598800D01*
X38930920Y44598800D02*
X38930920Y38401200D01*
X38930920Y38401200D02*
X44529080Y38401200D01*
X44529080Y38401200D02*
X44529080Y44598800D01*
X5285715Y16142857D02*
X5238096Y16095238D01*
X5095239Y16047619D01*
X5000001Y16047619D01*
X4857143Y16095238D01*
X4761905Y16190476D01*
X4714286Y16285714D01*
X4666667Y16476190D01*
X4666667Y16619048D01*
X4714286Y16809524D01*
X4761905Y16904762D01*
X4857143Y17000000D01*
X5000001Y17047619D01*
X5095239Y17047619D01*
X5238096Y17000000D01*
X5285715Y16952381D01*
X5904762Y17047619D02*
X6095239Y17047619D01*
X6190477Y17000000D01*
X6285715Y16904762D01*
X6333334Y16714286D01*
X6333334Y16380952D01*
X6285715Y16190476D01*
X6190477Y16095238D01*
X6095239Y16047619D01*
X5904762Y16047619D01*
X5809524Y16095238D01*
X5714286Y16190476D01*
X5666667Y16380952D01*
X5666667Y16714286D01*
X5714286Y16904762D01*
X5809524Y17000000D01*
X5904762Y17047619D01*
X6761905Y16047619D02*
X6761905Y17047619D01*
X7333334Y16047619D01*
X7333334Y17047619D01*
X8333334Y16047619D02*
X7761905Y16047619D01*
X8047619Y16047619D02*
X8047619Y17047619D01*
X7952381Y16904762D01*
X7857143Y16809524D01*
X7761905Y16761905D01*
X31252381Y22333334D02*
X30776190Y22000000D01*
X31252381Y21761905D02*
X30252381Y21761905D01*
X30252381Y22142858D01*
X30300000Y22238096D01*
X30347619Y22285715D01*
X30442857Y22333334D01*
X30585714Y22333334D01*
X30680952Y22285715D01*
X30728571Y22238096D01*
X30776190Y22142858D01*
X30776190Y21761905D01*
X31252381Y23285715D02*
X31252381Y22714286D01*
X31252381Y23000000D02*
X30252381Y23000000D01*
X30395238Y22904762D01*
X30490476Y22809524D01*
X30538095Y22714286D01*
X16452381Y21738095D02*
X17261905Y21738095D01*
X17357143Y21785714D01*
X17404762Y21833333D01*
X17452381Y21928571D01*
X17452381Y22119048D01*
X17404762Y22214286D01*
X17357143Y22261905D01*
X17261905Y22309524D01*
X16452381Y22309524D01*
X17452381Y23309524D02*
X17452381Y22738095D01*
X17452381Y23023809D02*
X16452381Y23023809D01*
X16595238Y22928571D01*
X16690476Y22833333D01*
X16738095Y22738095D01*
X41603334Y7548499D02*
X41270000Y8024690D01*
X41031905Y7548499D02*
X41031905Y8548499D01*
X41412858Y8548499D01*
X41508096Y8500880D01*
X41555715Y8453261D01*
X41603334Y8358023D01*
X41603334Y8215166D01*
X41555715Y8119928D01*
X41508096Y8072309D01*
X41412858Y8024690D01*
X41031905Y8024690D01*
X41984286Y8453261D02*
X42031905Y8500880D01*
X42127143Y8548499D01*
X42365239Y8548499D01*
X42460477Y8500880D01*
X42508096Y8453261D01*
X42555715Y8358023D01*
X42555715Y8262785D01*
X42508096Y8119928D01*
X41936667Y7548499D01*
X42555715Y7548499D01*
X40991905Y36546739D02*
X40991905Y37546739D01*
X41372858Y37546739D01*
X41468096Y37499120D01*
X41515715Y37451501D01*
X41563334Y37356263D01*
X41563334Y37213406D01*
X41515715Y37118168D01*
X41468096Y37070549D01*
X41372858Y37022930D01*
X40991905Y37022930D01*
X42515715Y36546739D02*
X41944286Y36546739D01*
X42230000Y36546739D02*
X42230000Y37546739D01*
X42134762Y37403882D01*
X42039524Y37308644D01*
X41944286Y37261025D01*
M02*
